<svg width="491" height="492" viewBox="0 0 491 492" fill="currentColor" xmlns="http://www.w3.org/2000/svg" role="img" aria-label="geo-repair">
<path d="M233.46 0.529372C275.545 -2.73113 323.87 9.34336 360.745 29.2084C419.08 60.4394 462.355 113.872 480.79 177.421L424.85 177.542C418.555 160.775 409.91 144.99 399.165 130.661C365.91 86.4364 320.79 62.1964 266.64 54.4749L266.795 138.564C252.525 138.666 238.055 138.49 223.766 138.433L223.822 54.6314C189.536 57.2304 151.586 74.5309 125 95.9164C85.2106 127.702 59.7936 174.087 54.4156 224.728C81.9791 224.223 110.34 224.47 137.937 224.437L137.94 267.406L54.2286 267.316C65.8211 358.541 132.76 424.881 223.795 437.076L223.782 353.321H266.79L266.765 437.096C268.675 436.896 270.86 436.521 272.785 436.241C304.38 431.946 337.225 417.671 362.235 398.151C405.5 364.381 429.345 321.231 436.445 267.356L352.64 267.331L352.695 224.376L489.785 224.37C490.535 240.131 491.12 249.541 489.925 265.491C485.775 318.551 464.34 368.791 428.91 408.506C385.72 457.441 324.775 487.106 259.62 490.911C194.748 494.836 131.002 472.666 82.5646 429.336C33.7881 386.286 4.24058 325.531 0.496577 260.581C-3.70242 194.912 18.8636 130.342 63.0521 81.5854C107.272 32.0369 167.477 4.35937 233.46 0.529372Z"/>
<path d="M241.291 200.017C266.621 197.857 288.906 216.642 291.061 241.97C293.216 267.3 274.426 289.585 249.096 291.735C223.772 293.89 201.496 275.105 199.34 249.78C197.185 224.455 215.965 202.176 241.291 200.017Z"/>
</svg>
